<svg width="60" height="60" fill="none" xmlns="http://www.w3.org/2000/svg"><g filter="url(#filter0_d)"><rect x="5" y="5" width="50" height="50" rx="10" fill="url(#paint0_linear)"/></g><path d="M35.377 18H24.623A6.63 6.63 0 0018 24.623v10.754A6.63 6.63 0 0024.623 42h10.754A6.63 6.63 0 0042 35.377V24.623A6.63 6.63 0 0035.377 18zm4.494 17.377a4.499 4.499 0 01-4.494 4.493H24.623a4.499 4.499 0 01-4.494-4.493V24.623a4.499 4.499 0 014.494-4.494h10.754a4.499 4.499 0 014.493 4.494v10.754z" fill="#fff"/><path d="M30 23.815A6.191 6.191 0 0023.816 30 6.191 6.191 0 0030 36.184 6.191 6.191 0 0036.184 30 6.191 6.191 0 0030 23.815zm0 10.239a4.06 4.06 0 01-4.055-4.055A4.06 4.06 0 0130 25.945a4.06 4.06 0 014.055 4.054A4.06 4.06 0 0130 34.054zm6.443-12.044a1.567 1.567 0 00-1.561 1.562c0 .41.167.814.458 1.105.29.29.693.457 1.103.457a1.58 1.58 0 001.105-.457 1.567 1.567 0 000-2.209 1.568 1.568 0 00-1.105-.457z" fill="#fff"/><defs><linearGradient id="paint0_linear" x1="21.25" y1="5" x2="46.99" y2="6.582" gradientUnits="userSpaceOnUse"><stop stop-color="#FF5C00"/><stop offset="1" stop-color="#F8323D"/></linearGradient><filter id="filter0_d" x="0" y="0" width="60" height="60" filterUnits="userSpaceOnUse" color-interpolation-filters="sRGB"><feFlood flood-opacity="0" result="BackgroundImageFix"/><feColorMatrix in="SourceAlpha" values="0 0 0 0 0 0 0 0 0 0 0 0 0 0 0 0 0 0 127 0"/><feOffset/><feGaussianBlur stdDeviation="2.5"/><feColorMatrix values="0 0 0 0 0 0 0 0 0 0 0 0 0 0 0 0 0 0 0.5 0"/><feBlend in2="BackgroundImageFix" result="effect1_dropShadow"/><feBlend in="SourceGraphic" in2="effect1_dropShadow" result="shape"/></filter></defs></svg>