<svg width="25" height="24" fill="none" xmlns="http://www.w3.org/2000/svg"><path d="M16.474 8.418l-5.79 5.47-2.78-2.86a.8.8 0 10-1.149 1.117l3.334 3.421c.31.312.81.323 1.132.024l6.37-6.008a.8.8 0 00.032-1.132.82.82 0 00-1.149-.032z" fill="#088B08"/><path d="M12.177 0c-6.618 0-12 5.382-12 12 0 6.619 5.382 12 12 12 6.619 0 12-5.381 12-12 0-6.618-5.381-12-12-12zm0 22.394C6.442 22.394 1.784 17.727 1.784 12S6.442 1.606 12.177 1.606c5.74 0 10.394 4.654 10.394 10.394s-4.654 10.394-10.394 10.394z" fill="#088B08"/></svg>